<svg width="13" height="13" viewBox="0 0 9 9" fill="none" xmlns="http://www.w3.org/2000/svg">
<path d="M1.92326 1.56606H0.264704C0.118494 1.56606 0 1.44749 0 1.30135C0 1.15522 0.118494 1.03665 0.264704 1.03665H1.92326C2.06947 1.03665 2.18796 1.15522 2.18796 1.30135C2.18796 1.44749 2.06947 1.56606 1.92326 1.56606Z" fill="white"/>
<path d="M2.87104 2.51375C2.20247 2.51375 1.65857 1.96985 1.65857 1.30133C1.65857 0.632672 2.20247 0.0887756 2.87104 0.0887756C3.53962 0.0887756 4.08352 0.632672 4.08352 1.30133C4.08352 1.96987 3.53962 2.51375 2.87104 2.51375ZM2.87104 0.618203C2.49439 0.618203 2.18798 0.924678 2.18798 1.30133C2.18798 1.67798 2.49439 1.98432 2.87104 1.98432C3.2477 1.98432 3.55411 1.67798 3.55411 1.30133C3.55411 0.924678 3.2477 0.618203 2.87104 0.618203Z" fill="white"/>
<path d="M8.7353 1.56606H4.77905C4.63284 1.56606 4.51434 1.44749 4.51434 1.30135C4.51434 1.15522 4.63284 1.03665 4.77905 1.03665H8.73529C8.88149 1.03665 8.99999 1.15522 8.99999 1.30135C8.99999 1.44749 8.88151 1.56606 8.7353 1.56606Z" fill="white"/>
<path d="M6.42512 5.71243C5.75652 5.71243 5.21265 5.16853 5.21265 4.50001C5.21265 3.83149 5.75654 3.2876 6.42512 3.2876C7.0937 3.2876 7.6376 3.83149 7.6376 4.50001C7.6376 5.16853 7.09372 5.71243 6.42512 5.71243ZM6.42512 3.81702C6.04847 3.81702 5.74205 4.12336 5.74205 4.50001C5.74205 4.87666 6.04847 5.183 6.42512 5.183C6.80177 5.183 7.10819 4.87666 7.10819 4.50001C7.10819 4.12336 6.80177 3.81702 6.42512 3.81702Z" fill="white"/>
<path d="M4.51717 4.7647H0.264704C0.118494 4.7647 0 4.64613 0 4.5C0 4.35386 0.118494 4.23529 0.264704 4.23529H4.51717C4.66338 4.23529 4.78187 4.35386 4.78187 4.5C4.78187 4.64613 4.66338 4.7647 4.51717 4.7647Z" fill="white"/>
<path d="M8.7353 4.7647H7.37289C7.22668 4.7647 7.10818 4.64613 7.10818 4.5C7.10818 4.35386 7.22668 4.23529 7.37289 4.23529H8.7353C8.88151 4.23529 9.00001 4.35386 9.00001 4.5C9.00001 4.64613 8.88151 4.7647 8.7353 4.7647Z" fill="white"/>
<path d="M2.5749 8.91124C1.90632 8.91124 1.36243 8.36734 1.36243 7.69868C1.36243 7.03016 1.90632 6.48627 2.5749 6.48627C3.24348 6.48627 3.78738 7.03016 3.78738 7.69868C3.78738 8.36734 3.24348 8.91124 2.5749 8.91124ZM2.5749 7.01569C2.19825 7.01569 1.89183 7.32203 1.89183 7.69868C1.89183 8.07534 2.19825 8.38181 2.5749 8.38181C2.95156 8.38181 3.25797 8.07534 3.25797 7.69868C3.25797 7.32203 2.95156 7.01569 2.5749 7.01569Z" fill="white"/>
<path d="M8.73531 7.9634H4.48284C4.33663 7.9634 4.21814 7.84482 4.21814 7.69869C4.21814 7.55256 4.33663 7.43399 4.48284 7.43399H8.73531C8.88152 7.43399 9.00001 7.55256 9.00001 7.69869C9.00001 7.84482 8.88152 7.9634 8.73531 7.9634Z" fill="white"/>
<path d="M1.62711 7.96339H0.264704C0.118494 7.96339 0 7.84481 0 7.69866C0 7.55253 0.118494 7.43396 0.264704 7.43396H1.62711C1.77332 7.43396 1.89182 7.55253 1.89182 7.69866C1.89182 7.84481 1.77332 7.96339 1.62711 7.96339Z" fill="white"/>
</svg>
